<svg width="48" height="48" viewBox="0 0 48 48" fill="none" xmlns="http://www.w3.org/2000/svg">
<g clip-path="url(#clip0_1307_1173)">
<path d="M38.0531 2.08946C31.8838 1.44104 26.3372 5.93262 25.6888 12.1019L24.5619 22.8241C24.4807 23.5964 25.041 24.2884 25.8134 24.3696L26.2796 24.4186L25.1036 35.607C24.5633 40.748 28.3063 45.3702 33.4473 45.9106C38.5884 46.4509 43.2106 42.7079 43.7509 37.5669L44.9269 26.3785L45.3931 26.4275C46.1654 26.5087 46.8574 25.9483 46.9386 25.176L48.0655 14.4538C48.714 8.28451 44.2224 2.73787 38.0531 2.08946ZM37.7591 4.88655C42.3861 5.37286 45.7548 9.53284 45.2685 14.1598L44.8765 17.8892L28.0939 16.1253L28.4859 12.3959C28.9722 7.76892 33.1322 4.40024 37.7591 4.88655ZM27.5059 21.7195L27.7999 18.9224L44.5825 20.6863L44.2885 23.4834L27.5059 21.7195ZM40.9538 37.2729C40.5756 40.8716 37.3401 43.4917 33.7413 43.1135C30.1426 42.7352 27.5225 39.4997 27.9007 35.901L29.0767 24.7126L42.1298 26.0845L40.9538 37.2729Z" fill="#FF5A30"/>
<path d="M32.1706 40.1204L35.9 40.5124C36.6724 40.5936 37.3644 40.0332 37.4456 39.2608C37.5267 38.4885 36.9664 37.7965 36.194 37.7153L32.4646 37.3233C31.6922 37.2421 31.0002 37.8025 30.919 38.5749C30.8378 39.3472 31.3982 40.0392 32.1706 40.1204Z" fill="#FF5A30"/>
<path d="M9.9471 2.08937C3.77783 2.73779 -0.713743 8.28442 -0.0653267 14.4537L1.06162 25.1759C1.1428 25.9483 1.83479 26.5086 2.60716 26.4274L3.07334 26.3784L4.24929 37.5668C4.78963 42.7079 9.41183 46.4508 14.5529 45.9105C19.6939 45.3701 23.4369 40.748 22.8966 35.6069L21.7206 24.4185L22.1868 24.3695C22.9592 24.2884 23.5195 23.5964 23.4384 22.824L22.3114 12.1018C21.663 5.93253 16.1164 1.44096 9.9471 2.08937ZM3.71172 23.4833L3.41773 20.6863L20.2003 18.9223L20.4943 21.7194L3.71172 23.4833ZM20.0995 35.9009C20.4777 39.4996 17.8576 42.7352 14.2589 43.1134C10.6602 43.4916 7.42462 40.8716 7.04638 37.2728L5.87044 26.0845L18.9235 24.7125L20.0995 35.9009ZM19.9063 16.1252L3.12375 17.8892L2.73177 14.1597C2.24545 9.53275 5.61413 5.37278 10.2411 4.88647C14.868 4.40016 19.028 7.76884 19.5143 12.3958L19.9063 16.1252Z" fill="#FF5A30"/>
<path d="M12.1002 40.5123L15.8296 40.1203C16.602 40.0391 17.1624 39.3471 17.0812 38.5748C17 37.8024 16.308 37.242 15.5357 37.3232L11.8062 37.7152C11.0338 37.7964 10.4735 38.4884 10.5546 39.2607C10.6358 40.0331 11.3278 40.5935 12.1002 40.5123Z" fill="#FF5A30"/>
</g>
<defs>
<clipPath id="clip0_1307_1173">
<rect width="48" height="48" fill="white"/>
</clipPath>
</defs>
</svg>
