<svg width="40" height="40" viewBox="0 0 40 40" fill="none" xmlns="http://www.w3.org/2000/svg">
<path fill-rule="evenodd" clip-rule="evenodd" d="M14.1667 4.86983C12.7859 4.86983 11.6667 5.98912 11.6667 7.36983V32.6303C11.6667 34.011 12.7859 35.1303 14.1667 35.1303H25.8333C27.214 35.1303 28.3333 34.011 28.3333 32.6303V7.36983C28.3333 5.98912 27.214 4.86983 25.8333 4.86983H25.6944L25.2884 5.84392C25.0296 6.46495 24.4228 6.86946 23.75 6.86946H16.25C15.5772 6.86946 14.9704 6.46495 14.7116 5.84392L14.3056 4.86983H14.1667ZM8.33333 7.36983C8.33333 4.14817 10.945 1.5365 14.1667 1.5365H25.8333C29.055 1.5365 31.6667 4.14817 31.6667 7.36983V32.6303C31.6667 35.8519 29.055 38.4636 25.8333 38.4636H14.1667C10.945 38.4636 8.33333 35.8519 8.33333 32.6303V7.36983Z" fill="#FF5A30"/>
</svg>
